<?xml version="1.0" encoding="utf-8"?>
<!-- Generator: Adobe Illustrator 25.4.0, SVG Export Plug-In . SVG Version: 6.00 Build 0)  -->
<svg version="1.1" id="Layer_1" xmlns="http://www.w3.org/2000/svg" xmlns:xlink="http://www.w3.org/1999/xlink" x="0px" y="0px"
	 viewBox="0 0 6117.5 7016.5" style="enable-background:new 0 0 6117.5 7016.5;" xml:space="preserve">
<style type="text/css">
	.st0{fill:#F0F0F0;}
	.st1{fill:none;stroke:#A0A0A0;stroke-linejoin:round;}
	.st2{fill:#A0A0A0;}
	.st3{fill:#FFFFFF;stroke:#000000;stroke-width:0.35;stroke-miterlimit:10;}
	.st4{fill:#EB4B86;}
	.st5{fill:#757575;}
	.st6{fill:#0DB5B3;}
	.st7{fill:#0F6DFF;}
	.st8{fill:none;stroke:#000000;stroke-width:0.35;stroke-miterlimit:10;}
	.st9{fill:none;stroke:#FFFFFF;stroke-width:0.72;stroke-linecap:round;stroke-linejoin:round;}
	.st10{fill:none;stroke:#FFFFFF;stroke-width:0.72;stroke-miterlimit:10;}
	.st11{fill:none;stroke:#FFFFFF;stroke-width:0.75;stroke-linecap:round;stroke-miterlimit:10;}
	.st12{fill:none;stroke:#FFFFFF;stroke-width:0.75;stroke-linecap:round;stroke-linejoin:round;}
	.st13{fill:#0DB5B3;stroke:#FFFFFF;stroke-width:0.75;stroke-linecap:round;stroke-linejoin:round;}
	.st14{fill:#FFFFFF;stroke:#FFFFFF;stroke-width:0.72;stroke-miterlimit:10;}
</style>
<rect x="171.4" y="84.6" class="st0" width="126.1" height="61.6"/>
<rect x="456.1" y="99.5" class="st0" width="60" height="91.3"/>
<rect x="171.4" y="155.6" class="st0" width="126.1" height="61.6"/>
<rect x="171.4" y="233.6" class="st0" width="126.1" height="61.6"/>
<rect x="171.4" y="305.5" class="st0" width="126.1" height="61.6"/>
<path class="st1" d="M300.5,174.1h48.2c14.8,0,26.7-10.8,26.7-24.2V135c0-13.4,12-24.2,26.7-24.2h45.8"/>
<polygon class="st2" points="447.2,113.3 451.5,110.8 447.2,108.3 "/>
<path class="st1" d="M303.3,266.3h39.4c5.4-0.4,21.6-1.8,35.6-9c16-8.2,18.3-18.4,18.8-21l3.8-102c-0.2-2.2,0.5-4.3,1.9-6
	c5.6-7.1,23.4-11.3,45.2-11.1"/>
<polygon class="st2" points="447.2,119.7 451.5,117.3 447.2,114.8 "/>
<path class="st1" d="M303.5,342.3c8.5-0.3,42.1-1.9,69.6-16c23.8-12.2,28.6-26.3,29.8-31l6-140c0.2-2.3,1.1-6.5,6-11
	c3.4-3.2,7.5-5.6,11.9-7c6.5-2,13.4-2.9,20.2-2.7"/>
<polygon class="st2" points="446.1,137.1 450.5,134.8 446.3,132.1 "/>
<polyline class="st3" points="0.6,48.9 721.5,48.9 721.5,12.8 0.6,12.8 "/>
<text transform="matrix(1 0 0 1 0 6.9023)" style="font-family:'IBMPlexSans'; font-size:8.13px;">IBM Support for Hyperledger Fabric</text>
<text transform="matrix(1 0 0 1 390.3296 6.9023)" style="font-family:'IBMPlexSans'; font-size:8.13px;">Legend</text>
<text transform="matrix(1 0 0 1 0 37.3623)" style="font-family:'IBMPlexSans-Bold'; font-size:18.1px;">HSM</text>
<text transform="matrix(1 0 0 1 405.1797 25.4526)" style="font-family:'IBMPlexSans'; font-size:6.39px;">Infrastructure</text>
<ellipse transform="matrix(0.2298 -0.9732 0.9732 0.2298 341.4181 478.4452)" class="st4" cx="473" cy="23.5" rx="5.3" ry="5.3"/>
<text transform="matrix(1 0 0 1 484.2495 26.1924)" style="font-family:'IBMPlexSans'; font-size:6.39px;">HSM</text>
<text transform="matrix(1 0 0 1 405.2197 41.3125)" style="font-family:'IBMPlexSans'; font-size:6.39px;">HSM Client</text>
<circle class="st5" cx="393.9" cy="39.4" r="5.4"/>
<circle class="st6" cx="394" cy="23.5" r="5.4"/>
<text transform="matrix(1 0 0 1 484.1499 40.9424)" style="font-family:'IBMPlexSans'; font-size:6.39px;">Partition</text>
<ellipse transform="matrix(0.1979 -0.9802 0.9802 0.1979 341.1151 494.9111)" class="st7" cx="473" cy="39" rx="5.4" ry="5.3"/>
<line class="st8" x1="379.1" y1="48.9" x2="379.1" y2="12.8"/>
<ellipse transform="matrix(0.1602 -0.9871 0.9871 0.1602 2.8386 356.1813)" class="st6" cx="210.7" cy="176.4" rx="18" ry="18"/>
<line class="st9" x1="214.1" y1="182.7" x2="217.5" y2="188.4"/>
<path class="st9" d="M214.7,180.6c2.1-2.2,2-5.6-0.1-7.7c-2.2-2.1-5.6-2-7.7,0.1c-2,2.1-2,5.5,0,7.6l1.2,1l-4,6.8"/>
<path class="st9" d="M215.4,162.6c-7.9-2.6-16.3,1.7-18.9,9.6c-2,6.2,0.2,12.9,5.4,16.8"/>
<path class="st9" d="M219.6,188.9c6.7-4.9,8.1-14.3,3.2-21c-1.3-1.7-2.9-3.1-4.7-4.2"/>
<circle class="st10" cx="213.5" cy="181.5" r="1.4"/>
<circle class="st10" cx="218.3" cy="189.8" r="1.4"/>
<circle class="st10" cx="216.8" cy="163.1" r="1.4"/>
<path class="st10" d="M202.1,189.1c0.1-0.1,0.1-0.2,0.2-0.3c0.5-0.5,1.4-0.5,1.9,0c0.5,0.5,0.5,1.4,0,1.9c0,0,0,0,0,0
	c-0.5,0.5-1.4,0.6-1.9,0C201.8,190.3,201.7,189.6,202.1,189.1"/>
<ellipse transform="matrix(0.1602 -0.9871 0.9871 0.1602 -147.0605 483.7161)" class="st6" cx="210.7" cy="328.3" rx="18" ry="18"/>
<line class="st9" x1="214.1" y1="334.4" x2="217.5" y2="340.1"/>
<path class="st9" d="M214.7,332.3c2.1-2.2,2-5.6-0.2-7.7c-2.2-2.1-5.6-2-7.7,0.2c-2,2.1-2,5.4,0,7.5l1.2,1l-4,6.8"/>
<path class="st9" d="M215.4,314.3c-7.9-2.6-16.3,1.7-18.9,9.6c-2,6.2,0.2,12.9,5.4,16.8"/>
<path class="st9" d="M219.6,340.6c6.7-4.9,8.1-14.3,3.2-21c-1.3-1.7-2.9-3.1-4.7-4.2"/>
<circle class="st10" cx="213.5" cy="333.2" r="1.4"/>
<circle class="st10" cx="218.4" cy="341.5" r="1.4"/>
<circle class="st10" cx="216.8" cy="314.8" r="1.4"/>
<path class="st10" d="M202.1,340.8c0.1-0.1,0.1-0.2,0.2-0.3c0.5-0.5,1.4-0.5,1.9,0c0.5,0.5,0.5,1.4,0,1.9c-0.5,0.5-1.4,0.5-1.9,0
	C201.8,342,201.7,341.3,202.1,340.8"/>
<g>
	<ellipse transform="matrix(0.1602 -0.9871 0.9871 0.1602 -74.2726 421.7879)" class="st6" cx="210.7" cy="254.5" rx="18" ry="18"/>
	<line class="st9" x1="214.1" y1="260.8" x2="217.5" y2="266.5"/>
	<path class="st9" d="M214.7,258.8c2.1-2.2,2-5.6-0.2-7.7c-2.2-2.1-5.6-2-7.7,0.2c-2,2.1-2,5.4,0,7.5l1.2,1l-4,6.8"/>
	<path class="st9" d="M215.4,240.7c-7.9-2.6-16.3,1.7-18.9,9.6c-2,6.2,0.2,13,5.4,16.8"/>
	<path class="st9" d="M219.6,267c6.7-4.9,8.1-14.3,3.2-21c-1.3-1.7-2.9-3.1-4.7-4.2"/>
	<circle class="st10" cx="213.5" cy="259.6" r="1.4"/>
	<circle class="st10" cx="218.4" cy="267.9" r="1.4"/>
	<circle class="st10" cx="216.8" cy="241.2" r="1.4"/>
	<path class="st10" d="M202.1,267.2c0.1-0.1,0.1-0.2,0.2-0.3c0.5-0.5,1.4-0.5,1.9,0c0.5,0.5,0.5,1.4,0,1.9c-0.5,0.5-1.4,0.5-1.9,0
		C201.8,268.4,201.7,267.7,202.1,267.2"/>
</g>
<g>
	<line class="st1" x1="447.9" y1="103.6" x2="300.7" y2="103.6"/>
	<polygon class="st2" points="447.2,101.1 451.5,103.6 447.2,106.1 	"/>
</g>
<text transform="matrix(1 0 0 1 196.6797 137.3823)" style="font-family:'IBMPlexSans'; font-size:7px;">Operator</text>
<text transform="matrix(1 0 0 1 179.8999 204.3823)" style="font-family:'IBMPlexSans'; font-size:7px;">Hyperledger Fabric </text>
<text transform="matrix(1 0 0 1 203.4897 212.7822)" style="font-family:'IBMPlexSans'; font-size:7px;">Peer</text>
<text transform="matrix(1 0 0 1 179.8999 282.3823)" style="font-family:'IBMPlexSans'; font-size:7px;">Hyperledger Fabric </text>
<text transform="matrix(1 0 0 1 206.3198 290.7822)" style="font-family:'IBMPlexSans'; font-size:7px;">CA</text>
<text transform="matrix(1 0 0 1 179.8999 355.3823)" style="font-family:'IBMPlexSans'; font-size:7px;">Hyperledger Fabric </text>
<text transform="matrix(1 0 0 1 198.5396 363.7822)" style="font-family:'IBMPlexSans'; font-size:7px;">Orderer</text>
<path class="st11" d="M215.8,103.6c0,2.7-2.2,4.8-4.9,4.8c-2.7,0-4.8-2.2-4.8-4.8c0-2.7,2.2-4.8,4.8-4.8S215.8,101,215.8,103.6
	C215.8,103.6,215.8,103.6,215.8,103.6"/>
<g>
	<ellipse transform="matrix(0.1602 -0.9871 0.9871 0.1602 69.2005 299.7204)" class="st6" cx="210.7" cy="109.2" rx="18" ry="18"/>
	<line class="st12" x1="210.6" y1="111.4" x2="210.6" y2="95.9"/>
	<line class="st12" x1="215.4" y1="109" x2="215.4" y2="95.9"/>
	<line class="st12" x1="205.8" y1="109" x2="205.8" y2="95.9"/>
	<polyline class="st12" points="222,110 210.7,103.4 199.3,110 199.3,115.6 210.7,122.1 222,115.6 222,110 	"/>
	<polyline class="st12" points="199.3,110 210.7,116.6 222,110 	"/>
	<circle class="st13" cx="210.6" cy="111.4" r="1.2"/>
	<circle class="st13" cx="205.8" cy="109" r="1.2"/>
	<circle class="st13" cx="215.4" cy="109" r="1.2"/>
</g>
<text transform="matrix(1 0 0 1 469.77 171.2524)" style="font-family:'IBMPlexSans'; font-size:7px;">Partition 1</text>
<circle class="st7" cx="486.1" cy="152.1" r="9.3"/>
<text transform="matrix(1 0 0 1 252.27 128.2822)" style="font-family:'IBMPlexSans'; font-size:7px;">HSM Client</text>
<circle class="st5" cx="269.5" cy="105.3" r="11"/>
<text transform="matrix(1 0 0 1 251.52 199.3022)" style="font-family:'IBMPlexSans'; font-size:7px;">HSM Client</text>
<circle class="st5" cx="268.8" cy="176.3" r="11"/>
<text transform="matrix(1 0 0 1 251.52 277.3525)" style="font-family:'IBMPlexSans'; font-size:7px;">HSM Client</text>
<circle class="st5" cx="268.8" cy="254.4" r="11"/>
<text transform="matrix(1 0 0 1 251.52 349.1924)" style="font-family:'IBMPlexSans'; font-size:7px;">HSM Client</text>
<circle class="st5" cx="268.8" cy="326.2" r="11"/>
<text transform="matrix(1 0 0 1 465.7197 129.8022)" style="font-family:'IBMPlexSans-SemiBold'; font-size:8.05px;">Cloud HSM</text>
<circle class="st4" cx="486.1" cy="97.9" r="20.7"/>
<g>
	<circle class="st14" cx="490.4" cy="88.2" r="0.8"/>
	<circle class="st14" cx="490.4" cy="108.6" r="0.8"/>
	<circle class="st14" cx="490.4" cy="98.4" r="0.8"/>
	<rect x="474.2" y="105.2" class="st9" width="19.4" height="6.8"/>
	<rect x="474.2" y="95" class="st9" width="19.4" height="6.8"/>
	<rect x="474.2" y="84.8" class="st9" width="19.4" height="6.8"/>
	<path class="st9" d="M495.8,108.6h2.6c0.6,0,1.1-0.5,1.1-1.1V89.3c0-0.6-0.5-1.1-1.1-1.1h-2.6"/>
	<line class="st9" x1="499.5" y1="98.4" x2="495.8" y2="98.4"/>
</g>
</svg>
