<?xml version="1.0" encoding="utf-8"?>
<!-- Generator: Adobe Illustrator 25.4.0, SVG Export Plug-In . SVG Version: 6.00 Build 0)  -->
<svg version="1.1" id="Layer_1" xmlns="http://www.w3.org/2000/svg" xmlns:xlink="http://www.w3.org/1999/xlink" x="0px" y="0px"
	 viewBox="0 0 6117.5 7072.9" style="enable-background:new 0 0 6117.5 7072.9;" xml:space="preserve">
<style type="text/css">
	.st0{fill:#FFFFFF;stroke:#000000;stroke-width:0.35;stroke-miterlimit:10;}
	.st1{fill:#EB4B86;}
	.st2{fill:#0DB5B3;}
	.st3{fill:none;stroke:#000000;stroke-width:0.35;stroke-miterlimit:10;}
	.st4{fill:#F0F0F0;}
	.st5{fill:none;stroke:#FFFFFF;stroke-width:0.75;stroke-linecap:round;stroke-miterlimit:10;}
	.st6{fill:none;stroke:#FFFFFF;stroke-width:0.72;stroke-linecap:round;stroke-linejoin:round;}
	.st7{fill:none;stroke:#FFFFFF;stroke-width:0.72;stroke-miterlimit:10;}
	.st8{fill:none;stroke:#A0A0A0;stroke-linejoin:round;}
	.st9{fill:#A0A0A0;}
	.st10{fill:#FFFFFF;}
</style>
<polyline class="st0" points="0.6,48.9 721.5,48.9 721.5,12.8 0.6,12.8 "/>
<text transform="matrix(1 0 0 1 0 6.9023)" style="font-family:'IBMPlexSans'; font-size:8.13px;">IBM Support for Hyperledger Fabric</text>
<text transform="matrix(1 0 0 1 390.3296 6.9023)" style="font-family:'IBMPlexSans'; font-size:8.13px;">Legend</text>
<text transform="matrix(1 0 0 1 0 37.3623)" style="font-family:'IBMPlexSans-Bold'; font-size:18.1px;">Intermediate Certificate Authority</text>
<text transform="matrix(1 0 0 1 407.6997 25.4023)" style="font-family:'IBMPlexSans'; font-size:6.39px;">User</text>
<circle cx="395.9" cy="22.7" r="5.4"/>
<circle class="st1" cx="395.9" cy="38.3" r="5.4"/>
<text transform="matrix(1 0 0 1 407.2197 40.4727)" style="font-family:'IBMPlexSans'; font-size:6.39px;">Root CA</text>
<text transform="matrix(1 0 0 1 473.1499 25.4023)" style="font-family:'IBMPlexSans'; font-size:6.39px;">Infrastructure</text>
<circle class="st2" cx="462" cy="22.7" r="5.4"/>
<line class="st3" x1="379.1" y1="48.9" x2="379.1" y2="12.8"/>
<rect x="145.7" y="79.3" class="st4" width="430.8" height="175"/>
<text transform="matrix(1 0 0 1 156.9897 95.9526)" style="font-family:'IBMPlexSans-SemiBold'; font-size:7.2px;">{{site.data.keyword.IBM_notm}} Support for Hyperledger Fabric</text>
<text transform="matrix(1 0 0 1 518.9697 240.2227)" style="font-family:'IBMPlexSans'; font-size:7px;">User</text>
<circle cx="526.2" cy="212.4" r="18"/>
<path class="st5" d="M531,206.5c0,2.7-2.2,4.8-4.9,4.8c-2.7,0-4.8-2.2-4.8-4.9c0-2.7,2.2-4.8,4.9-4.8l0,0
	C528.8,201.6,531,203.8,531,206.5"/>
<path class="st5" d="M516.7,223.3c1-5.3,6.1-8.7,11.4-7.7c3.8,0.7,6.8,3.7,7.6,7.5"/>
<circle class="st5" cx="526.2" cy="212.6" r="14.3"/>
<g>
	<circle class="st2" cx="526.2" cy="107.7" r="18"/>
	<line class="st6" x1="529.6" y1="113.9" x2="532.9" y2="119.7"/>
	<path class="st6" d="M530.2,111.9c2.1-2.2,2-5.6-0.2-7.7c-2.2-2.1-5.6-2-7.7,0.2c-2,2.1-2,5.4,0,7.5l1.2,1l-4,6.8"/>
	<path class="st6" d="M530.9,93.8c-7.9-2.6-16.3,1.7-18.9,9.6c-2,6.2,0.2,12.9,5.4,16.8"/>
	<path class="st6" d="M535.1,120.2c6.7-4.9,8.1-14.3,3.2-21c-1.3-1.7-2.9-3.1-4.7-4.2"/>
	<circle class="st7" cx="529" cy="112.7" r="1.4"/>
	<circle class="st7" cx="533.8" cy="121" r="1.4"/>
	<circle class="st7" cx="532.2" cy="94.3" r="1.4"/>
	<path class="st7" d="M517.5,120.3c0.1-0.1,0.1-0.2,0.2-0.3c0.5-0.5,1.4-0.6,2,0c0.5,0.5,0.6,1.4,0,2s-1.4,0.6-2,0
		C517.3,121.6,517.2,120.9,517.5,120.3"/>
</g>
<g>
	<circle class="st2" cx="331.2" cy="161.7" r="18"/>
	<line class="st6" x1="334.6" y1="167.9" x2="337.9" y2="173.7"/>
	<path class="st6" d="M335.2,165.9c2.1-2.2,2-5.6-0.2-7.7c-2.2-2.1-5.6-2-7.7,0.2c-2,2.1-2,5.4,0,7.5l1.2,1l-4,6.8"/>
	<path class="st6" d="M335.9,147.8c-7.9-2.6-16.3,1.7-18.9,9.6c-2,6.2,0.2,12.9,5.4,16.8"/>
	<path class="st6" d="M340.1,174.2c6.7-4.9,8.1-14.3,3.2-21c-1.3-1.7-2.9-3.1-4.7-4.2"/>
	<circle class="st7" cx="334" cy="166.7" r="1.4"/>
	<circle class="st7" cx="338.8" cy="175" r="1.4"/>
	<circle class="st7" cx="337.2" cy="148.3" r="1.4"/>
	<path class="st7" d="M322.5,174.3c0.1-0.1,0.1-0.2,0.2-0.3c0.5-0.5,1.4-0.6,2,0s0.6,1.4,0,2c-0.5,0.5-1.4,0.6-2,0
		C322.3,175.6,322.2,174.9,322.5,174.3"/>
</g>
<circle class="st1" cx="185.8" cy="162.2" r="18"/>
<text transform="matrix(1 0 0 1 518.9995 136.1826)" style="font-family:'IBMPlexSans'; font-size:7px;">Peer</text>
<text transform="matrix(1 0 0 1 369.9697 182.1826)" style="fill:#1C1C1C; font-family:'IBMPlexSans'; font-size:7px;">issues user certificate</text>
<text transform="matrix(1 0 0 1 369.71 152.1826)" style="fill:#1C1C1C; font-family:'IBMPlexSans'; font-size:7px;">issues peer certificate</text>
<text transform="matrix(1 0 0 1 219.4497 177.1826)" style="fill:#1C1C1C; font-family:'IBMPlexSans'; font-size:7px;">issues CA certificate</text>
<text transform="matrix(1 0 0 1 305.2896 192.1826)" style="font-family:'IBMPlexSans'; font-size:7px;">Intermediate CA</text>
<text transform="matrix(1 0 0 1 172.6196 192.1826)" style="font-family:'IBMPlexSans'; font-size:7px;">Root CA</text>
<g>
	<path class="st8" d="M362.7,159.8l74.3-0.9c8.6,0,15.5-8,15.5-17.8v-11c0-9.9,7-17.8,15.5-17.8h25.1"/>
	<polygon class="st9" points="492.4,114.8 496.7,112.3 492.4,109.8 	"/>
</g>
<g>
	<path class="st8" d="M362.7,169l74.3,0.9c8.6,0,15.5,8,15.5,17.8v11c0,9.9,7,17.8,15.5,17.8h25.1"/>
	<polygon class="st9" points="492.4,218.9 496.7,216.5 492.4,214 	"/>
</g>
<g>
	<line class="st8" x1="297.1" y1="163.8" x2="210.7" y2="163.8"/>
	<polygon class="st9" points="296.4,161.3 300.7,163.8 296.4,166.3 	"/>
</g>
<g>
	<polygon class="st10" points="179.7,166.5 187.5,166.5 187.5,166.1 187.5,165.8 179.7,165.8 	"/>
	<polygon class="st10" points="192.1,159.9 192.1,159.5 179.7,159.5 179.7,160.2 192.1,160.2 	"/>
	<polygon class="st10" points="192.1,156.8 192.1,156.4 179.7,156.4 179.7,157.1 192.1,157.1 	"/>
	<path class="st10" d="M197.7,166.8c0-1.5-0.8-3-2.1-3.8v-8.8c0-0.1,0-0.2-0.1-0.2l-4.7-4.7c-0.1-0.1-0.2-0.1-0.2-0.1h-14
		c-0.2,0-0.4,0.2-0.4,0.3v0v23.3c0,0.2,0.2,0.4,0.3,0.4h0h13.1v2.1c0,0.1,0.1,0.3,0.2,0.3c0.1,0,0.1,0,0.2,0c0.1,0,0.2,0,0.2-0.1
		l2.9-2.2l2.9,2.2c0.1,0.1,0.3,0.1,0.4,0c0.1-0.1,0.2-0.2,0.2-0.3v-5.7C197.3,168.7,197.7,167.8,197.7,166.8z M190.9,150.4l3.4,3.4
		h-3.4V150.4z M189.7,172.5h-12.8v-22.6h13.3v4.3c0,0.2,0.2,0.4,0.3,0.4h0h4.3v8c-0.5-0.2-1.1-0.3-1.7-0.3c-0.6,0-1.2,0.1-1.8,0.4
		h-11.7v0.7h10.6c-1.9,1.5-2.2,4.3-0.6,6.2c0,0,0,0,0.1,0.1L189.7,172.5z M194.2,173.2l-0.5-0.4l-0.3-0.2c-0.1-0.1-0.3-0.1-0.4,0
		l-0.3,0.2l-0.5,0.4l-1.8,1.4v-4.3c0.8,0.6,1.7,1,2.8,1c0.6,0,1.2-0.1,1.7-0.3c0.1-0.1,0.2-0.1,0.4-0.2c0.1-0.1,0.2-0.1,0.4-0.2
		c0.1-0.1,0.2-0.2,0.4-0.3v4.3L194.2,173.2z M196.4,168.7c0,0.1-0.1,0.2-0.1,0.2c-0.1,0.2-0.2,0.3-0.4,0.4c-0.1,0.1-0.2,0.2-0.4,0.3
		c-0.1,0.1-0.2,0.2-0.4,0.3c-0.1,0.1-0.2,0.1-0.4,0.2c-0.5,0.3-1.1,0.4-1.7,0.4c-1,0-2-0.4-2.8-1.2c-0.1-0.1-0.2-0.3-0.4-0.4
		l-0.2-0.3c-0.3-0.6-0.5-1.2-0.5-1.9c0-1.5,0.9-2.8,2.2-3.4c0.2-0.1,0.4-0.1,0.6-0.2c0.3-0.1,0.7-0.2,1-0.2c0.6,0,1.2,0.1,1.7,0.4
		c0.1,0.1,0.2,0.1,0.4,0.2c0.1,0.1,0.2,0.2,0.4,0.3C197,165,197.4,167.1,196.4,168.7L196.4,168.7z"/>
</g>
</svg>
